<svg xmlns="http://www.w3.org/2000/svg" viewBox="0 0 96 96" role="img" aria-label="Built With Emerlyn">
  <defs>
    <linearGradient id="bwe-favicon-bg" x1="14" y1="10" x2="82" y2="90" gradientUnits="userSpaceOnUse">
      <stop offset="0" stop-color="#1C0F2E"/>
      <stop offset="1" stop-color="#0A0A0F"/>
    </linearGradient>
    <linearGradient id="bwe-favicon-magenta" x1="12" y1="18" x2="80" y2="42" gradientUnits="userSpaceOnUse">
      <stop offset="0" stop-color="#FF2DBB"/>
      <stop offset="1" stop-color="#8A5CFF"/>
    </linearGradient>
    <linearGradient id="bwe-favicon-violet" x1="12" y1="58" x2="80" y2="78" gradientUnits="userSpaceOnUse">
      <stop offset="0" stop-color="#8A5CFF"/>
      <stop offset="1" stop-color="#6A1BFF"/>
    </linearGradient>
    <linearGradient id="bwe-favicon-center" x1="14" y1="48" x2="78" y2="48" gradientUnits="userSpaceOnUse">
      <stop offset="0" stop-color="#FF2DBB"/>
      <stop offset="0.55" stop-color="#8A5CFF"/>
      <stop offset="1" stop-color="#6A1BFF"/>
    </linearGradient>
  </defs>
  <rect width="96" height="96" rx="24" fill="url(#bwe-favicon-bg)"/>
  <path d="M18 24H42C50 24 54 28 54 36V39H72" fill="none" stroke="url(#bwe-favicon-magenta)" stroke-width="6" stroke-linecap="round" stroke-linejoin="round"/>
  <path d="M18 48H64" fill="none" stroke="url(#bwe-favicon-center)" stroke-width="6" stroke-linecap="round" stroke-linejoin="round"/>
  <path d="M60 38L72 48L60 58" fill="none" stroke="url(#bwe-favicon-center)" stroke-width="6" stroke-linecap="round" stroke-linejoin="round"/>
  <path d="M18 72H42C50 72 54 68 54 60V57H72" fill="none" stroke="url(#bwe-favicon-violet)" stroke-width="6" stroke-linecap="round" stroke-linejoin="round"/>
  <circle cx="18" cy="24" r="5" fill="#FF2DBB"/>
  <circle cx="18" cy="48" r="5" fill="#FF2DBB"/>
  <circle cx="18" cy="72" r="5" fill="#8A5CFF"/>
  <circle cx="72" cy="39" r="4" fill="#8A5CFF"/>
  <circle cx="72" cy="57" r="4" fill="#6A1BFF"/>
</svg>
